<mxfile host="app.diagrams.net" modified="2020-07-29T01:51:45.394Z" agent="5.0 (Macintosh; Intel Mac OS X 10_14_5) AppleWebKit/537.36 (KHTML, like Gecko) Chrome/83.0.4103.106 Safari/537.36" etag="aesIqaIyKHxIvuZNxngJ" version="13.4.5" type="github">
  <diagram id="0rN4_Pw6kAJWEHDtYvtr" name="Page-1">
    <mxGraphModel dx="730" dy="397" grid="1" gridSize="10" guides="1" tooltips="1" connect="1" arrows="1" fold="1" page="1" pageScale="1" pageWidth="850" pageHeight="1100" math="0" shadow="0">
      <root>
        <mxCell id="0" />
        <mxCell id="1" parent="0" />
        <mxCell id="6wmIiRE8fNFol8JI_oBt-11" style="edgeStyle=orthogonalEdgeStyle;rounded=1;orthogonalLoop=1;jettySize=auto;html=1;entryX=0;entryY=0.5;entryDx=0;entryDy=0;dashed=1;" edge="1" parent="1" source="6wmIiRE8fNFol8JI_oBt-1" target="6wmIiRE8fNFol8JI_oBt-6">
          <mxGeometry relative="1" as="geometry">
            <Array as="points">
              <mxPoint x="420" y="90" />
            </Array>
          </mxGeometry>
        </mxCell>
        <mxCell id="6wmIiRE8fNFol8JI_oBt-13" style="edgeStyle=orthogonalEdgeStyle;rounded=1;orthogonalLoop=1;jettySize=auto;html=1;entryX=-0.004;entryY=0.612;entryDx=0;entryDy=0;entryPerimeter=0;exitX=0.995;exitY=0.607;exitDx=0;exitDy=0;exitPerimeter=0;dashed=1;" edge="1" parent="1" source="6wmIiRE8fNFol8JI_oBt-1" target="6wmIiRE8fNFol8JI_oBt-9">
          <mxGeometry relative="1" as="geometry">
            <Array as="points">
              <mxPoint x="440" y="199" />
              <mxPoint x="440" y="224" />
            </Array>
          </mxGeometry>
        </mxCell>
        <mxCell id="6wmIiRE8fNFol8JI_oBt-14" style="edgeStyle=orthogonalEdgeStyle;rounded=1;orthogonalLoop=1;jettySize=auto;html=1;dashed=1;" edge="1" parent="1" source="6wmIiRE8fNFol8JI_oBt-1" target="6wmIiRE8fNFol8JI_oBt-8">
          <mxGeometry relative="1" as="geometry">
            <Array as="points">
              <mxPoint x="440" y="190" />
              <mxPoint x="440" y="150" />
            </Array>
          </mxGeometry>
        </mxCell>
        <mxCell id="6wmIiRE8fNFol8JI_oBt-15" style="edgeStyle=orthogonalEdgeStyle;rounded=1;orthogonalLoop=1;jettySize=auto;html=1;entryX=0;entryY=0.5;entryDx=0;entryDy=0;exitX=1;exitY=1;exitDx=0;exitDy=0;dashed=1;" edge="1" parent="1" source="6wmIiRE8fNFol8JI_oBt-1" target="6wmIiRE8fNFol8JI_oBt-10">
          <mxGeometry relative="1" as="geometry">
            <Array as="points">
              <mxPoint x="420" y="218" />
              <mxPoint x="420" y="280" />
            </Array>
          </mxGeometry>
        </mxCell>
        <mxCell id="6wmIiRE8fNFol8JI_oBt-1" value="Translation Service" style="ellipse;whiteSpace=wrap;html=1;fillColor=#f5f5f5;strokeColor=#666666;fontColor=#333333;" vertex="1" parent="1">
          <mxGeometry x="310" y="150" width="120" height="80" as="geometry" />
        </mxCell>
        <mxCell id="6wmIiRE8fNFol8JI_oBt-17" style="edgeStyle=orthogonalEdgeStyle;rounded=1;orthogonalLoop=1;jettySize=auto;html=1;entryX=0.039;entryY=0.315;entryDx=0;entryDy=0;entryPerimeter=0;" edge="1" parent="1" source="6wmIiRE8fNFol8JI_oBt-2" target="6wmIiRE8fNFol8JI_oBt-1">
          <mxGeometry relative="1" as="geometry" />
        </mxCell>
        <mxCell id="6wmIiRE8fNFol8JI_oBt-2" value="Twilio Parent Template&lt;br&gt;(JSON)" style="rounded=1;whiteSpace=wrap;html=1;fillColor=#fff2cc;strokeColor=#d6b656;" vertex="1" parent="1">
          <mxGeometry x="130" y="100" width="120" height="60" as="geometry" />
        </mxCell>
        <mxCell id="6wmIiRE8fNFol8JI_oBt-18" style="edgeStyle=orthogonalEdgeStyle;rounded=1;orthogonalLoop=1;jettySize=auto;html=1;" edge="1" parent="1" source="6wmIiRE8fNFol8JI_oBt-3" target="6wmIiRE8fNFol8JI_oBt-1">
          <mxGeometry relative="1" as="geometry" />
        </mxCell>
        <mxCell id="6wmIiRE8fNFol8JI_oBt-3" value="Survey Language Dictionary&lt;br&gt;(JSON)" style="rounded=1;whiteSpace=wrap;html=1;fillColor=#fff2cc;strokeColor=#d6b656;" vertex="1" parent="1">
          <mxGeometry x="130" y="210" width="120" height="60" as="geometry" />
        </mxCell>
        <mxCell id="6wmIiRE8fNFol8JI_oBt-19" style="edgeStyle=orthogonalEdgeStyle;rounded=1;orthogonalLoop=1;jettySize=auto;html=1;dashed=1;dashPattern=1 1;" edge="1" parent="1" source="6wmIiRE8fNFol8JI_oBt-6" target="6wmIiRE8fNFol8JI_oBt-16">
          <mxGeometry relative="1" as="geometry" />
        </mxCell>
        <mxCell id="6wmIiRE8fNFol8JI_oBt-6" value="survey_template_en.js" style="rounded=1;whiteSpace=wrap;html=1;fillColor=#cce5ff;strokeColor=#36393d;" vertex="1" parent="1">
          <mxGeometry x="450" y="70" width="130" height="40" as="geometry" />
        </mxCell>
        <mxCell id="6wmIiRE8fNFol8JI_oBt-20" style="edgeStyle=orthogonalEdgeStyle;rounded=1;orthogonalLoop=1;jettySize=auto;html=1;dashed=1;dashPattern=1 1;" edge="1" parent="1" source="6wmIiRE8fNFol8JI_oBt-8" target="6wmIiRE8fNFol8JI_oBt-16">
          <mxGeometry relative="1" as="geometry" />
        </mxCell>
        <mxCell id="6wmIiRE8fNFol8JI_oBt-8" value="survey_template_es.js" style="rounded=1;whiteSpace=wrap;html=1;fillColor=#cce5ff;strokeColor=#36393d;" vertex="1" parent="1">
          <mxGeometry x="460" y="130" width="130" height="40" as="geometry" />
        </mxCell>
        <mxCell id="6wmIiRE8fNFol8JI_oBt-21" style="edgeStyle=orthogonalEdgeStyle;rounded=1;orthogonalLoop=1;jettySize=auto;html=1;entryX=-0.006;entryY=0.659;entryDx=0;entryDy=0;entryPerimeter=0;dashed=1;dashPattern=1 1;" edge="1" parent="1" source="6wmIiRE8fNFol8JI_oBt-9" target="6wmIiRE8fNFol8JI_oBt-16">
          <mxGeometry relative="1" as="geometry" />
        </mxCell>
        <mxCell id="6wmIiRE8fNFol8JI_oBt-9" value="survey_template_fr.js" style="rounded=1;whiteSpace=wrap;html=1;fillColor=#cce5ff;strokeColor=#36393d;" vertex="1" parent="1">
          <mxGeometry x="460" y="200" width="130" height="40" as="geometry" />
        </mxCell>
        <mxCell id="6wmIiRE8fNFol8JI_oBt-22" style="edgeStyle=orthogonalEdgeStyle;rounded=1;orthogonalLoop=1;jettySize=auto;html=1;entryX=0.5;entryY=1;entryDx=0;entryDy=0;dashed=1;dashPattern=1 1;" edge="1" parent="1" source="6wmIiRE8fNFol8JI_oBt-10" target="6wmIiRE8fNFol8JI_oBt-16">
          <mxGeometry relative="1" as="geometry" />
        </mxCell>
        <mxCell id="6wmIiRE8fNFol8JI_oBt-10" value="survey_template_sw.js" style="rounded=1;whiteSpace=wrap;html=1;fillColor=#cce5ff;strokeColor=#36393d;" vertex="1" parent="1">
          <mxGeometry x="450" y="260" width="130" height="40" as="geometry" />
        </mxCell>
        <mxCell id="6wmIiRE8fNFol8JI_oBt-16" value="Twilio Studio" style="ellipse;whiteSpace=wrap;html=1;fillColor=#cdeb8b;strokeColor=#36393d;" vertex="1" parent="1">
          <mxGeometry x="660" y="140" width="110" height="80" as="geometry" />
        </mxCell>
      </root>
    </mxGraphModel>
  </diagram>
</mxfile>
